<?xml version="1.0" standalone="no"?>
<!DOCTYPE svg PUBLIC "-//W3C//DTD SVG 20010904//EN"
 "http://www.w3.org/TR/2001/REC-SVG-20010904/DTD/svg10.dtd">
<svg version="1.0" xmlns="http://www.w3.org/2000/svg"
 width="128.000000pt" height="128.000000pt" viewBox="0 0 128.000000 128.000000"
 preserveAspectRatio="xMidYMid meet">
<metadata>
Created by potrace 1.14, written by Peter Selinger 2001-2017
</metadata>
<g transform="translate(0.000000,128.000000) scale(0.100000,-0.100000)"
fill="#000000" stroke="none">
<path d="M307 1165 c-190 -53 -300 -259 -237 -445 12 -36 32 -78 45 -95 31
-40 516 -525 526 -525 4 0 121 115 261 255 286 287 316 328 325 448 9 104 -25
196 -96 267 -72 71 -135 102 -227 108 -84 5 -158 -14 -223 -57 l-43 -29 -47
29 c-85 55 -189 71 -284 44z"/>
</g>
</svg>
